<?xml version="1.0" encoding="UTF-8"?>
<svg width="24px" height="24px" viewBox="0 0 24 24" version="1.1" xmlns="http://www.w3.org/2000/svg" xmlns:xlink="http://www.w3.org/1999/xlink">
    <title>899D2452-5158-4B64-9D4A-D7098441FE1A</title>
    <g id="ðŸ“-Icons" stroke="none" stroke-width="1" fill="none" fill-rule="evenodd">
        <g id="Icons-/-24px-/-ic.chevron.up_24px" fill="#787A7A" fill-rule="nonzero">
            <path d="M11.9960938,7.87890625 C12.2840402,7.87890625 12.5375478,7.97648278 12.7664564,8.17163584 L12.8789062,8.27734375 L18.7304688,14.2695312 L18.811737,14.3594775 C18.9626116,14.5452009 19.0429688,14.766183 19.0429688,15.0273438 C19.0429688,15.6289062 18.5585938,16.1210938 17.9570312,16.1210938 C17.702567,16.1210938 17.4538425,16.0349968 17.2551362,15.8677228 L17.1601562,15.7773438 L12.0039062,10.4648438 L6.83984375,15.7773438 L6.74281387,15.8652628 C6.54233099,16.029257 6.30412946,16.1210938 6.04296875,16.1210938 C5.44140625,16.1210938 4.95703125,15.6289062 4.95703125,15.0273438 C4.95703125,14.7728795 5.03738839,14.5471142 5.18826303,14.3598875 L5.26953125,14.2695312 L11.1210938,8.26953125 L11.2359808,8.1642561 C11.4680325,7.97074298 11.7148438,7.87890625 11.9960938,7.87890625 Z" id="Path"></path>
        </g>
    </g>
</svg>