<?xml version="1.0" encoding="UTF-8"?>
<svg width="24px" height="24px" viewBox="0 0 24 24" version="1.1" xmlns="http://www.w3.org/2000/svg" xmlns:xlink="http://www.w3.org/1999/xlink">
    <title>EE507FA2-CC47-408C-A752-5234D4B65A10</title>
    <g id="ðŸ“-Icons" stroke="none" stroke-width="1" fill="none" fill-rule="evenodd">
        <g id="Icons-/-24px-/-ic.chevron.down_24px" fill="#787A7A" fill-rule="nonzero">
            <path d="M17.9570312,7.8828125 C18.5585938,7.8828125 19.0429688,8.3671875 19.0429688,8.9765625 C19.0429688,9.22395833 18.9670139,9.43880208 18.8241464,9.62109375 L18.7304688,9.7265625 L12.8789062,15.7265625 C12.6210938,15.984375 12.3320312,16.1171875 11.9960938,16.1171875 C11.7148438,16.1171875 11.4737723,16.0253508 11.2384407,15.8318376 L11.1210938,15.7265625 L5.26953125,9.734375 C5.06640625,9.5234375 4.95703125,9.2734375 4.95703125,8.9765625 C4.95703125,8.3671875 5.44140625,7.8828125 6.04296875,7.8828125 C6.30412946,7.8828125 6.54233099,7.97464923 6.74281387,8.13372358 L6.83984375,8.21875 L12.0039062,13.53125 L17.1601562,8.21875 C17.3789062,8 17.6601562,7.8828125 17.9570312,7.8828125 Z" id="Path"></path>
        </g>
    </g>
</svg>