<?xml version="1.0" encoding="UTF-8"?>
<svg width="24px" height="24px" viewBox="0 0 24 24" version="1.1" xmlns="http://www.w3.org/2000/svg" xmlns:xlink="http://www.w3.org/1999/xlink">
    <title>30399737-63FD-443C-9193-13B89017A2A3</title>
    <g id="ðŸ“-Icons" stroke="none" stroke-width="1" fill="none" fill-rule="evenodd">
        <g id="Icons-/-24px-/-ic.search_24px" fill="#787A7A" fill-rule="nonzero">
            <path d="M10.734375,4.41015625 C14.171875,4.41015625 16.984375,7.23046875 16.984375,10.6679688 C16.984375,11.836238 16.6648484,12.9312824 16.099532,13.8732202 L15.953125,14.1054688 L19.140625,17.3007812 C19.40625,17.5585938 19.5234375,17.9023438 19.5234375,18.2460938 C19.5234375,19.0039062 18.953125,19.5898438 18.1953125,19.5898438 C17.8872768,19.5898438 17.5849809,19.498007 17.3425428,19.3094137 L17.2265625,19.2070312 L14.0078125,15.9882812 C13.0546875,16.5820312 11.9296875,16.9257812 10.734375,16.9257812 C7.296875,16.9257812 4.4765625,14.1054688 4.4765625,10.6679688 C4.4765625,7.22265625 7.296875,4.41015625 10.734375,4.41015625 Z M10.734375,6.31640625 C8.3359375,6.31640625 6.375,8.27734375 6.375,10.6679688 C6.375,13.0585938 8.3359375,15.0195312 10.734375,15.0195312 C13.125,15.0195312 15.0859375,13.0585938 15.0859375,10.6679688 C15.0859375,8.27734375 13.125,6.31640625 10.734375,6.31640625 Z" id="Shape"></path>
        </g>
    </g>
</svg>