<?xml version="1.0" encoding="UTF-8"?>
<svg width="24px" height="24px" viewBox="0 0 24 24" version="1.1" xmlns="http://www.w3.org/2000/svg" xmlns:xlink="http://www.w3.org/1999/xlink">
    <title>9EC2A808-E168-458F-B96B-C834B7D8F23C</title>
    <g id="ðŸ“-Icons" stroke="none" stroke-width="1" fill="none" fill-rule="evenodd">
        <g id="Icons-/-24px-/-ic.menu_24px" fill="#787A7A" fill-rule="nonzero">
            <path d="M20.2045898,16.0678711 C20.784668,16.0678711 21.2416992,16.5512695 21.2416992,17.1401367 C21.2416992,17.6733398 20.8435742,18.145293 20.3188659,18.2058503 L20.2045898,18.2124023 L3.79541016,18.2124023 C3.22412109,18.2124023 2.75830078,17.7026367 2.75830078,17.1401367 C2.75830078,16.5987305 3.15642578,16.1338867 3.68113411,16.0743138 L3.79541016,16.0678711 L20.2045898,16.0678711 Z M20.2045898,10.9233398 C20.784668,10.9233398 21.2416992,11.4067383 21.2416992,11.9956055 C21.2416992,12.5288086 20.8435742,13.0007617 20.3188659,13.061319 L20.2045898,13.0678711 L3.79541016,13.0678711 C3.22412109,13.0678711 2.75830078,12.5493164 2.75830078,11.9956055 C2.75830078,11.4541992 3.15642578,10.9893555 3.68113411,10.9297826 L3.79541016,10.9233398 L20.2045898,10.9233398 Z M20.2045898,5.78759766 C20.784668,5.78759766 21.2416992,6.26220703 21.2416992,6.85107422 C21.2416992,7.38427734 20.8435742,7.85623047 20.3188659,7.91678776 L20.2045898,7.92333984 L3.79541016,7.92333984 C3.22412109,7.92333984 2.75830078,7.41357422 2.75830078,6.85107422 C2.75830078,6.31787109 3.15642578,5.85357422 3.68113411,5.79403776 L3.79541016,5.78759766 L20.2045898,5.78759766 Z" id="Shape"></path>
        </g>
    </g>
</svg>