<?xml version="1.0" encoding="UTF-8"?>
<svg width="24px" height="24px" viewBox="0 0 24 24" version="1.1" xmlns="http://www.w3.org/2000/svg" xmlns:xlink="http://www.w3.org/1999/xlink">
    <title>5FFDFD38-AA63-4CC9-811F-0BAD1899730D</title>
    <g id="ðŸ“-Icons" stroke="none" stroke-width="1" fill="none" fill-rule="evenodd">
        <g id="Icons-/-24px-/-ic.filter_24px" fill="#787A7A" fill-rule="nonzero">
            <path d="M6.06525238,5.5 C5.89524673,5.5 5.78264535,5.61260138 5.78264535,5.78260703 L5.78264535,6.63042812 C5.78264535,6.71543094 5.81465935,6.76841976 5.87096004,6.82472045 L10.3926725,11.62904 C10.4489732,11.6853406 10.5306642,11.7173547 10.5869649,11.7173547 L13.4130351,11.7173547 C13.498038,11.7173547 13.5510268,11.6853406 13.6073275,11.62904 L18.12904,6.82472045 C18.1853406,6.76841976 18.2173547,6.71543094 18.2173547,6.63042812 L18.2173547,5.78260703 C18.2173547,5.61260138 18.1047536,5.5 17.9347476,5.5 L6.06525238,5.5 Z M10.3043578,12.2825687 L10.3043578,16.5216742 C10.3043578,16.6342755 10.3606585,16.7214861 10.4456613,16.7777868 L13.2717316,18.473429 C13.3004341,18.5021314 13.3567345,18.4999626 13.4130351,18.4999626 C13.4693358,18.4999626 13.498038,18.5021314 13.5543387,18.473429 C13.6393415,18.4171283 13.6956422,18.3299177 13.6956422,18.2173163 L13.6956422,12.2825687 L10.3043578,12.2825687 Z" id="Shape"></path>
        </g>
    </g>
</svg>